<svg width="36" height="36" viewBox="0 0 36 36" fill="none" xmlns="http://www.w3.org/2000/svg">
<g clip-path="url(#clip0_9988_81)">
<path d="M19.5191 0.5C17.0213 0.5 14.548 0.992006 12.2404 1.94793C9.93273 2.90385 7.83599 4.30495 6.06988 6.07124C4.30377 7.83753 2.90287 9.93442 1.94719 12.2421C0.991499 14.5499 0.499747 17.0232 0.5 19.521V35.5019H16.479C21.5237 35.5019 26.3617 33.4979 29.9289 29.9308C33.496 26.3637 35.5 21.5256 35.5 16.4809V0.5H19.5191ZM26.0309 20.6172H20.6153V26.0348H15.3827V20.6172H9.96716V15.3847H15.3827V9.96909H20.6153V15.3847H26.0213L26.0309 20.6172Z" fill="#185EC8"/>
<path opacity="0.3" d="M0.5 19.521V35.5019L15.3827 20.6172H9.96716V15.3847H15.3827V9.96909H20.6153V15.375L35.4904 0.5H19.4998C14.4587 0.505107 9.62573 2.51141 6.06307 6.07805C2.50041 9.64468 0.499487 14.4798 0.5 19.521Z" fill="white"/>
</g>
<defs>
<clipPath id="clip0_9988_81">
<rect width="35" height="35" fill="white" transform="translate(0.5 0.5)"/>
</clipPath>
</defs>
</svg>
