<svg width="15" height="15" viewBox="0 0 15 15" fill="none" xmlns="http://www.w3.org/2000/svg">
<g clip-path="url(#clip0_9849_573)">
<path d="M5.83781 3.65297L7.0536 4.86639C7.07412 4.88686 7.09846 4.90309 7.12525 4.91416C7.15204 4.92522 7.18074 4.9309 7.20972 4.93087C7.2387 4.93084 7.26739 4.9251 7.29416 4.91398C7.32092 4.90286 7.34523 4.88658 7.3657 4.86607C7.38617 4.84556 7.40241 4.82121 7.41347 4.79442C7.42453 4.76764 7.43021 4.73893 7.43018 4.70995C7.43015 4.68097 7.42441 4.65228 7.41329 4.62552C7.40218 4.59875 7.38589 4.57444 7.36538 4.55397L6.14994 3.3409C5.83392 3.01996 5.65986 2.59539 5.65986 2.14536C5.65986 1.20586 6.42434 0.441538 7.36397 0.441538C8.06215 0.441538 8.68225 0.859897 8.94378 1.50736C8.96025 1.54813 8.98852 1.58305 9.02497 1.60765C9.06142 1.63224 9.10439 1.64539 9.14836 1.64541H9.14839C9.19236 1.6454 9.23532 1.63227 9.27177 1.60769C9.30823 1.58311 9.33651 1.54821 9.353 1.50745C9.6148 0.859956 10.235 0.441567 10.9331 0.441567C11.8728 0.441567 12.6372 1.20589 12.6372 2.14539C12.6372 2.59542 12.4632 3.01999 12.1472 3.3409L9.14845 6.33405L8.04606 5.23375C8.02556 5.21327 8.00121 5.19703 7.97443 5.18596C7.94764 5.17489 7.91894 5.1692 7.88995 5.16923C7.86097 5.16926 7.83228 5.175 7.80551 5.18612C7.77875 5.19724 7.75444 5.21352 7.73397 5.23404C7.71349 5.25455 7.69725 5.27889 7.68619 5.30568C7.67512 5.33246 7.66944 5.36117 7.66946 5.39015C7.66949 5.41913 7.67523 5.44782 7.68634 5.47459C7.69746 5.50135 7.71374 5.52567 7.73426 5.54614L8.99256 6.80207C9.12287 6.9213 9.18173 6.9213 9.3044 6.80207L12.4594 3.65294L12.4617 3.65057C12.8596 3.24657 13.0787 2.71199 13.0787 2.14533C13.0787 0.962466 12.1162 0.00012207 10.9332 0.00012207C10.2032 0.00012207 9.54082 0.363462 9.14851 0.953589C8.75637 0.363403 8.09411 0.00012207 7.364 0.00012207C6.18097 0.00012207 5.21851 0.962466 5.21851 2.14536C5.21851 2.71202 5.43762 3.24657 5.83547 3.6506L5.83781 3.65297Z" fill="white"/>
<path d="M9.64976 1.82751H8.7357C8.67717 1.82751 8.62103 1.85077 8.57965 1.89215C8.53826 1.93354 8.51501 1.98968 8.51501 2.04821V2.74158H7.82167C7.79268 2.74158 7.76399 2.74729 7.73721 2.75838C7.71043 2.76947 7.68611 2.78572 7.66561 2.80622C7.64512 2.82671 7.62886 2.85104 7.61777 2.87781C7.60668 2.90459 7.60097 2.93329 7.60097 2.96227V3.87633C7.60097 3.90531 7.60668 3.93401 7.61777 3.96079C7.62886 3.98756 7.64512 4.01189 7.66561 4.03239C7.68611 4.05288 7.71043 4.06914 7.73721 4.08023C7.76399 4.09132 7.79268 4.09703 7.82167 4.09703H8.51501V4.7904C8.51501 4.84893 8.53826 4.90506 8.57965 4.94645C8.62103 4.98784 8.67717 5.01109 8.7357 5.01109H9.64976C9.70829 5.01109 9.76443 4.98784 9.80582 4.94645C9.8472 4.90506 9.87045 4.84893 9.87045 4.7904V4.09703H10.5638C10.6223 4.09703 10.6785 4.07377 10.7198 4.03239C10.7612 3.991 10.7845 3.93486 10.7845 3.87633V2.96227C10.7845 2.90374 10.7612 2.8476 10.7198 2.80622C10.6785 2.76483 10.6223 2.74158 10.5638 2.74158H9.87045V2.04824C9.87045 1.9897 9.8472 1.93357 9.80582 1.89217C9.76443 1.85078 9.7083 1.82752 9.64976 1.82751ZM10.3431 3.18299V3.65564H9.64976C9.59123 3.65564 9.5351 3.67889 9.49371 3.72028C9.45232 3.76167 9.42907 3.8178 9.42907 3.87633V4.5697H8.95639V3.87633C8.95639 3.8178 8.93314 3.76167 8.89175 3.72028C8.85036 3.67889 8.79423 3.65564 8.7357 3.65564H8.04236V3.18299H8.7357C8.79423 3.18299 8.85036 3.15974 8.89175 3.11835C8.93314 3.07697 8.95639 3.02083 8.95639 2.9623V2.26893H9.42907V2.9623C9.42907 3.02083 9.45232 3.07697 9.49371 3.11835C9.5351 3.15974 9.59123 3.18299 9.64976 3.18299H10.3431ZM14.2759 7.27331C14.0298 6.88454 13.5584 6.75408 13.1719 6.97709L10.3508 8.60614C10.2584 8.2614 9.94329 8.00684 9.56981 8.00684H8.22289C7.67908 7.77457 7.09021 7.5516 6.49235 7.5516C5.7059 7.5516 4.95857 7.90386 4.33115 8.57034C4.07369 8.84382 3.8866 9.11614 3.76906 9.3085L3.33514 8.87459C3.23111 8.78839 3.12708 8.78839 3.02304 8.87459L2.5523 9.34533L2.31069 9.10354C2.2902 9.08303 2.26586 9.06676 2.23908 9.05566C2.2123 9.04456 2.18359 9.03885 2.1546 9.03885C2.12561 9.03884 2.0969 9.04455 2.07012 9.05565C2.04334 9.06674 2.019 9.08301 1.9985 9.10351L0.680466 10.4218C0.639094 10.4632 0.61585 10.5193 0.615845 10.5778C0.615839 10.6363 0.639073 10.6925 0.680436 10.7339L1.51174 11.5657C1.5979 11.652 1.73761 11.652 1.82383 11.5659C1.91006 11.4797 1.91011 11.3399 1.82395 11.2538L1.14857 10.5779L2.15451 9.57173L6.04135 13.4613L5.03518 14.4673L2.50399 11.9341C2.41783 11.8479 2.27811 11.8478 2.19189 11.934C2.10567 12.0202 2.10561 12.1599 2.19177 12.2461L4.87903 14.9354C4.89952 14.9559 4.92385 14.9722 4.95063 14.9833C4.97741 14.9944 5.00611 15.0001 5.03509 15.0001H5.03515C5.09368 15.0001 5.1498 14.9768 5.19119 14.9355L6.50952 13.6174C6.53001 13.5969 6.54627 13.5726 6.55737 13.5458C6.56846 13.5191 6.57418 13.4904 6.57418 13.4614C6.57419 13.4324 6.56848 13.4037 6.5574 13.377C6.54631 13.3502 6.53006 13.3259 6.50958 13.3054L6.04513 12.8406L6.51708 12.3686C6.53757 12.3481 6.55383 12.3238 6.56492 12.297C6.57602 12.2702 6.58172 12.2416 6.58172 12.2126C6.58172 12.1836 6.57602 12.1549 6.56492 12.1281C6.55383 12.1013 6.53757 12.077 6.51708 12.0565L6.08571 11.6252H7.34073C7.39926 11.6252 7.45539 11.6019 7.49678 11.5605C7.53817 11.5191 7.56142 11.463 7.56142 11.4045C7.56142 11.3459 7.53817 11.2898 7.49678 11.2484C7.45539 11.207 7.39926 11.1838 7.34073 11.1838H5.64432L4.09147 9.63091C4.32881 9.21727 5.14522 7.99301 6.49235 7.99301C7.04782 7.99301 7.59675 8.21801 8.10224 8.43343C8.1276 8.44324 8.15456 8.44826 8.18175 8.44826H9.56981C10.0246 8.44826 10.1233 9.16509 9.56981 9.18209H6.90491C6.84638 9.18209 6.79024 9.20534 6.74886 9.24672C6.70747 9.28811 6.68422 9.34425 6.68422 9.40278C6.68422 9.46131 6.70747 9.51744 6.74886 9.55883C6.79024 9.60022 6.84638 9.62347 6.90491 9.62347H9.56981C9.89597 9.62347 10.1824 9.43219 10.3098 9.13943L13.3926 7.35935C13.7281 7.16406 14.1842 7.67168 13.734 8.01217L10.0138 10.9199C9.79648 11.0901 9.52458 11.1838 9.24822 11.1838H8.30246C8.24393 11.1838 8.18779 11.207 8.1464 11.2484C8.10502 11.2898 8.08176 11.346 8.08176 11.4045C8.08176 11.463 8.10502 11.5192 8.1464 11.5605C8.18779 11.6019 8.24393 11.6252 8.30246 11.6252H9.24822C9.62275 11.6252 9.99127 11.4981 10.2858 11.2676L13.9948 8.36863C14.3757 8.07873 14.4932 7.64962 14.2759 7.27331ZM5.73429 12.5273L2.86446 9.65743L3.17911 9.34278L6.04894 12.2126L5.73429 12.5273Z" fill="white"/>
</g>
<defs>
<clipPath id="clip0_9849_573">
<rect width="15" height="15" fill="white"/>
</clipPath>
</defs>
</svg>
