<svg width="36" height="36" viewBox="0 0 36 36" fill="none" xmlns="http://www.w3.org/2000/svg">
<path d="M35.9371 0.505626C35.8111 0.199658 35.5116 0 35.1811 0C3.42809 0 0 13.1593 0 18.8178C0 26.1583 5.58973 31.0902 13.9088 31.0902C24.4156 31.0902 26.6165 21.0922 27.7996 15.7218C29.3901 8.49086 32.8902 4.26913 35.7604 1.39737C35.9943 1.16343 36.0647 0.811594 35.9371 0.505626ZM26.2009 15.37C24.7003 22.1837 22.3915 29.4539 13.9088 29.4539C6.56823 29.4539 1.6363 25.1798 1.6363 18.8178C1.6363 13.7631 4.76494 2.15336 33.2502 1.65264C30.5453 4.62918 27.6376 8.83288 26.2009 15.37Z" fill="#600EE4"/>
<path d="M22.8268 8.64314C22.6288 8.2373 22.1395 8.06879 21.7337 8.26353C8.43526 14.7074 0 30.3163 0 35.1811C0 35.6328 0.366563 35.9993 0.818191 35.9993C1.26982 35.9993 1.63638 35.6328 1.63638 35.1811C1.63638 31.357 9.01789 16.2439 22.4472 9.73623C22.853 9.53826 23.0232 9.04897 22.8268 8.64314Z" fill="#600EE4"/>
</svg>
