<svg width="36" height="36" viewBox="0 0 36 36" fill="none" xmlns="http://www.w3.org/2000/svg">
<path d="M34.2119 20.8336C33.8744 20.6383 33.4426 20.7534 33.2473 21.0907L31.6203 23.901C31.1119 24.7782 29.9847 25.0787 29.1074 24.5706C28.2302 24.0625 27.9297 22.9353 28.4378 22.058L34.9609 10.7935C36.9481 7.36217 35.7731 2.95363 32.3415 0.966752C28.9099 -1.0204 24.5017 0.154588 22.5148 3.58617L21.6895 5.01109C19.3321 3.84023 16.6627 3.56831 14.0965 4.25221C11.3016 4.99736 8.96399 6.78593 7.51462 9.28917L1.46253 19.7402C0.0128824 22.2431 -0.374935 25.1608 0.369938 27.9558C1.11481 30.7504 2.90366 33.088 5.40662 34.5374C7.07819 35.5053 8.93433 35.9999 10.8155 35.9999C11.7515 35.9999 12.6936 35.8774 13.6222 35.63C16.4171 34.8851 18.7545 33.0963 20.2038 30.5933L24.6981 22.8328C24.7022 22.8257 24.7055 22.818 24.7093 22.8109C24.7137 22.8034 24.7189 22.7966 24.7233 22.7892L26.2562 20.142C27.7058 17.639 28.0937 14.7214 27.3488 11.9264C26.6649 9.36031 25.1002 7.18034 22.9111 5.71861L23.7365 4.29341C25.3333 1.53584 28.8762 0.591295 31.634 2.18843C32.9702 2.96187 33.9246 4.20964 34.3223 5.70131C34.7201 7.19298 34.513 8.75029 33.7393 10.0862L27.2161 21.3505C26.318 22.9015 26.8492 24.8941 28.3999 25.7923C28.9116 26.0886 29.4711 26.2293 30.0234 26.2293C31.1462 26.2293 32.2399 25.6478 32.8417 24.6085L34.469 21.7982C34.6646 21.4609 34.5495 21.0292 34.2119 20.8336ZM18.5721 10.4068C18.7404 10.1173 19.086 9.99339 19.3928 10.0928C19.3974 10.0945 19.4018 10.0958 19.4062 10.0975C19.4232 10.1035 19.4397 10.1098 19.4562 10.117C19.4754 10.1255 19.4941 10.1348 19.5125 10.145C19.5172 10.1478 19.5221 10.1497 19.5268 10.1524L19.5284 10.1532C19.8616 10.3466 19.9756 10.7748 19.7828 11.1085L18.1985 13.8438C18.1049 14.0053 17.9541 14.1207 17.7736 14.1687C17.5932 14.2168 17.4045 14.1915 17.243 14.0982C17.0812 14.0045 16.9656 13.8534 16.9175 13.6727C16.8692 13.4923 16.8945 13.3036 16.9881 13.1421L18.5721 10.4068ZM8.7363 9.99641C9.99671 7.81975 12.0294 6.26436 14.4599 5.61644C16.6616 5.0295 18.9511 5.25114 20.9806 6.23524L19.565 8.67998C19.2593 8.62202 18.942 8.63274 18.6325 8.71541C18.1428 8.84587 17.7256 9.14195 17.4419 9.55531L17.4399 9.55779C17.4097 9.60201 17.3806 9.64732 17.3534 9.69429L15.7629 12.4406C15.3042 13.2327 15.4218 14.2023 15.9848 14.8623L15.0935 16.4014L7.53357 12.0734L8.7363 9.99641ZM18.9824 29.8858C16.3803 34.3792 10.6075 35.9178 6.11414 33.3157C1.62073 30.7136 0.0820959 24.9411 2.68421 20.4477L6.8244 13.2981L23.1226 22.7362L18.9824 29.8858ZM25.9846 12.2901C26.6325 14.7205 26.2949 17.2578 25.0345 19.4345L23.8551 21.4711L16.3171 17.1057L17.2059 15.5706C17.3334 15.5948 17.4627 15.6074 17.5926 15.6074C17.7745 15.6074 17.9577 15.5838 18.1381 15.5357C18.6814 15.3907 19.1357 15.0433 19.4172 14.5568L21.0077 11.8105C21.4662 11.0187 21.3489 10.0494 20.7858 9.38887L22.2022 6.94249C24.0661 8.21306 25.3976 10.0884 25.9846 12.2901Z" fill="#600EE4"/>
</svg>
