<svg width="36" height="33" viewBox="0 0 36 33" fill="none" xmlns="http://www.w3.org/2000/svg">
<path opacity="0.5" d="M35 1L0.999999 0.999996" stroke="#600EE4" stroke-width="1.5" stroke-linecap="round"/>
<path opacity="0.5" d="M35 31.6001L0.999999 31.6001" stroke="#600EE4" stroke-width="1.5" stroke-linecap="round"/>
<path d="M31.6001 16.3C31.6001 13.0945 31.6001 11.4917 30.6043 10.4958C29.6085 9.5 28.0057 9.5 24.8001 9.5L11.2001 9.5C7.9946 9.5 6.39182 9.5 5.39598 10.4958C4.40015 11.4917 4.40015 13.0944 4.40015 16.3C4.40015 19.5056 4.40015 21.1083 5.39598 22.1042C6.39182 23.1 7.9946 23.1 11.2001 23.1H24.8001C28.0057 23.1 29.6085 23.1 30.6043 22.1042C31.6001 21.1083 31.6001 19.5056 31.6001 16.3Z" stroke="#600EE4" stroke-width="1.5"/>
</svg>
