<svg width="38" height="38" viewBox="0 0 38 38" fill="none" xmlns="http://www.w3.org/2000/svg">
<path d="M13.6 13.6006H24.4" stroke="#600EE4" stroke-width="1.5" stroke-linecap="round"/>
<path d="M18.9999 24.3989L18.9999 13.5989" stroke="#600EE4" stroke-width="1.5" stroke-linecap="round"/>
<path d="M8.20001 4.6C8.20001 6.58823 6.58823 8.20001 4.6 8.20001C2.61178 8.20001 1 6.58823 1 4.6C1 2.61178 2.61178 1 4.6 1C6.58823 1 8.20001 2.61178 8.20001 4.6Z" stroke="#BF9FF4" stroke-width="1.5"/>
<path d="M8.20001 33.3974C8.20001 35.3856 6.58823 36.9974 4.6 36.9974C2.61178 36.9974 1 35.3856 1 33.3974C1 31.4091 2.61178 29.7974 4.6 29.7974C6.58823 29.7974 8.20001 31.4091 8.20001 33.3974Z" stroke="#BF9FF4" stroke-width="1.5"/>
<path d="M37 4.6C37 6.58823 35.3882 8.20001 33.4 8.20001C31.4118 8.20001 29.8 6.58823 29.8 4.6C29.8 2.61178 31.4118 1 33.4 1C35.3882 1 37 2.61178 37 4.6Z" stroke="#BF9FF4" stroke-width="1.5"/>
<path d="M37 33.3974C37 35.3856 35.3882 36.9974 33.4 36.9974C31.4118 36.9974 29.8 35.3856 29.8 33.3974C29.8 31.4091 31.4118 29.7974 33.4 29.7974C35.3882 29.7974 37 31.4091 37 33.3974Z" stroke="#BF9FF4" stroke-width="1.5"/>
<path d="M8.20001 33.3984H29.8" stroke="#600EE4" stroke-width="1.5" stroke-linecap="round"/>
<path d="M29.8 4.60107H8.20001" stroke="#600EE4" stroke-width="1.5" stroke-linecap="round"/>
<path d="M33.4 29.8027L33.4 8.20264" stroke="#600EE4" stroke-width="1.5" stroke-linecap="round"/>
<path d="M4.59967 8.20264L4.59967 29.8027" stroke="#600EE4" stroke-width="1.5" stroke-linecap="round"/>
</svg>
