<svg width="38" height="32" viewBox="0 0 38 32" fill="none" xmlns="http://www.w3.org/2000/svg">
<path d="M12.4535 23.9146L18.9951 30.4562L25.5367 23.9146" stroke="#600EE4" stroke-width="1.5" stroke-linecap="round" stroke-linejoin="round"/>
<path d="M18.9951 15.7378V30.4565" stroke="#600EE4" stroke-width="1.5" stroke-linecap="round" stroke-linejoin="round"/>
<path d="M33.5176 25.6973C34.9394 24.6975 36.0056 23.2706 36.5615 21.6238C37.1174 19.9769 37.1341 18.1958 36.6091 16.5388C36.0842 14.8818 35.0448 13.4352 33.642 12.4089C32.2391 11.3827 30.5458 10.8301 28.8076 10.8315H26.747C26.2551 8.91459 25.3348 7.13425 24.0553 5.62449C22.7758 4.11474 21.1705 2.91492 19.3602 2.11536C17.5499 1.3158 15.5818 0.93733 13.6041 1.00845C11.6264 1.07958 9.69054 1.59843 7.94235 2.52596C6.19417 3.45349 4.67918 4.76552 3.51144 6.36328C2.3437 7.96105 1.55364 9.8029 1.20073 11.7502C0.847825 13.6975 0.941273 15.6994 1.47404 17.6054C2.0068 19.5113 2.965 21.2716 4.2765 22.7536" stroke="#600EE4" stroke-width="1.5" stroke-linecap="round" stroke-linejoin="round"/>
</svg>
