<svg width="36" height="36" viewBox="0 0 36 36" fill="none" xmlns="http://www.w3.org/2000/svg">
<path d="M18 35C27.3888 35 35 27.3888 35 18C35 8.61116 27.3888 1 18 1C8.61116 1 1 8.61116 1 18C1 27.3888 8.61116 35 18 35Z" stroke="#600EE4" stroke-width="1.5" stroke-linecap="round" stroke-linejoin="round"/>
<g opacity="0.4">
<path d="M11.1993 2.69922H12.8993C9.58434 12.6272 9.58434 23.3712 12.8993 33.2992H11.1993" stroke="#600EE4" stroke-width="1.5" stroke-linecap="round" stroke-linejoin="round"/>
<path d="M23.0999 2.69922C26.4149 12.6272 26.4149 23.3712 23.0999 33.2992" stroke="#600EE4" stroke-width="1.5" stroke-linecap="round" stroke-linejoin="round"/>
<path d="M2.69983 24.7996V23.0996C12.6278 26.4146 23.3718 26.4146 33.2998 23.0996V24.7996" stroke="#600EE4" stroke-width="1.5" stroke-linecap="round" stroke-linejoin="round"/>
<path d="M2.69983 12.9003C12.6278 9.58531 23.3718 9.58531 33.2998 12.9003" stroke="#600EE4" stroke-width="1.5" stroke-linecap="round" stroke-linejoin="round"/>
</g>
</svg>
