<svg width="38" height="35" viewBox="0 0 38 35" fill="none" xmlns="http://www.w3.org/2000/svg">
<path d="M4.2247 24.6294L10.3777 30.7824C14.699 35.1038 16.175 35.0326 20.443 30.7824L30.3482 20.8772C33.7982 17.4272 34.6696 15.1332 30.3482 10.8119L24.1953 4.65888C19.5894 0.0530219 17.5799 1.20893 14.13 4.65888L4.2247 14.5641C-0.0254917 18.8321 -0.381156 20.0236 4.2247 24.6294Z" stroke="#600EE4" stroke-width="1.5" stroke-linecap="round" stroke-linejoin="round"/>
<path opacity="0.4" d="M31.6623 26.8169L30.4886 28.7553C28.8347 31.5117 30.1151 33.7702 33.3339 33.7702C36.5526 33.7702 37.833 31.5117 36.1792 28.7553L35.0055 26.8169C34.0808 25.2876 32.5692 25.2876 31.6623 26.8169Z" fill="#600EE4" stroke="#600EE4" stroke-width="1.5" stroke-linecap="round" stroke-linejoin="round"/>
<path opacity="0.4" d="M1.07617 18.7255C10.9636 16.0402 21.3846 15.9513 31.3076 18.4943L32.1968 18.7255" stroke="#600EE4" stroke-width="1.5" stroke-linecap="round" stroke-linejoin="round"/>
</svg>
