<svg width="24" height="24" viewBox="0 0 24 24" fill="none" xmlns="http://www.w3.org/2000/svg">
<path d="M1 19.3333V12C1 9.08262 2.15893 6.28473 4.22183 4.22183C6.28473 2.15893 9.08262 1 12 1C14.9174 1 17.7153 2.15893 19.7782 4.22183C21.8411 6.28473 23 9.08262 23 12V19.3333" stroke="#600EE4" stroke-width="1.5" stroke-linecap="round" stroke-linejoin="round"/>
<path d="M23 20.5554C23 21.2038 22.7425 21.8255 22.284 22.2839C21.8256 22.7424 21.2039 22.9999 20.5556 22.9999H19.3333C18.685 22.9999 18.0633 22.7424 17.6049 22.2839C17.1464 21.8255 16.8889 21.2038 16.8889 20.5554V16.8888C16.8889 16.2405 17.1464 15.6187 17.6049 15.1603C18.0633 14.7019 18.685 14.4443 19.3333 14.4443H23V20.5554ZM1 20.5554C1 21.2038 1.25754 21.8255 1.71596 22.2839C2.17438 22.7424 2.79614 22.9999 3.44444 22.9999H4.66667C5.31497 22.9999 5.93673 22.7424 6.39515 22.2839C6.85357 21.8255 7.11111 21.2038 7.11111 20.5554V16.8888C7.11111 16.2405 6.85357 15.6187 6.39515 15.1603C5.93673 14.7019 5.31497 14.4443 4.66667 14.4443H1V20.5554Z" fill="#600EE4" fill-opacity="0.4" stroke="#BE9EF3" stroke-width="1.5" stroke-linecap="round" stroke-linejoin="round"/>
</svg>
